<svg width="385" height="385" viewBox="0 0 385 385" fill="none" xmlns="http://www.w3.org/2000/svg">
<path fill-rule="evenodd" clip-rule="evenodd" d="M97.3336 287.959C150.054 340.68 235.532 340.68 288.252 287.959C340.973 235.239 340.973 149.761 288.252 97.0406C235.532 44.3198 150.054 44.3198 97.3336 97.0406C44.6128 149.761 44.6128 235.239 97.3336 287.959Z" fill="white"/>
<mask id="path-2-inside-1" fill="white">
<path fill-rule="evenodd" clip-rule="evenodd" d="M116.485 267.101L269.22 114.366C227.043 72.1891 158.662 72.1891 116.485 114.366C74.3084 156.542 74.3084 224.924 116.485 267.101Z"/>
</mask>
<path fill-rule="evenodd" clip-rule="evenodd" d="M116.485 267.101L269.22 114.366C227.043 72.1891 158.662 72.1891 116.485 114.366C74.3084 156.542 74.3084 224.924 116.485 267.101Z" fill="#FDF0AF"/>
<path d="M116.485 267.101L109.414 274.172L116.485 281.243L123.556 274.172L116.485 267.101ZM269.22 114.366L276.291 121.437L283.362 114.366L276.291 107.295L269.22 114.366ZM123.556 274.172L276.291 121.437L262.149 107.295L109.414 260.03L123.556 274.172ZM276.291 107.295C230.209 61.2128 155.496 61.2128 109.414 107.295L123.556 121.437C161.827 83.1654 223.878 83.1654 262.149 121.437L276.291 107.295ZM109.414 107.295C63.3321 153.377 63.3321 228.09 109.414 274.172L123.556 260.03C85.2847 221.758 85.2847 159.708 123.556 121.437L109.414 107.295Z" fill="#3D3D3D" mask="url(#path-2-inside-1)"/>
<mask id="path-4-inside-2" fill="white">
<path fill-rule="evenodd" clip-rule="evenodd" d="M269.927 268.513L117.192 115.778C75.0156 157.955 75.0156 226.336 117.192 268.513C159.369 310.69 227.751 310.69 269.927 268.513Z"/>
</mask>
<path fill-rule="evenodd" clip-rule="evenodd" d="M269.927 268.513L117.192 115.778C75.0156 157.955 75.0156 226.336 117.192 268.513C159.369 310.69 227.751 310.69 269.927 268.513Z" fill="#FF7171"/>
<path d="M269.927 268.513L276.998 275.584L284.069 268.513L276.998 261.442L269.927 268.513ZM117.192 115.778L124.263 108.707L117.192 101.636L110.121 108.707L117.192 115.778ZM276.998 261.442L124.263 108.707L110.121 122.849L262.856 275.584L276.998 261.442ZM110.121 108.707C64.0393 154.789 64.0393 229.502 110.121 275.584L124.263 261.442C85.9919 223.171 85.9919 161.12 124.263 122.849L110.121 108.707ZM110.121 275.584C156.203 321.666 230.917 321.666 276.998 275.584L262.856 261.442C224.585 299.713 162.535 299.713 124.263 261.442L110.121 275.584Z" fill="#3D3D3D" mask="url(#path-4-inside-2)"/>
</svg>
